<?xml version="1.0" encoding="us-ascii" standalone="no"?><svg xmlns="http://www.w3.org/2000/svg" xmlns:xlink="http://www.w3.org/1999/xlink" contentStyleType="text/css" height="819px" preserveAspectRatio="none" style="width:971px;height:819px;background:#FFFFFF;" version="1.1" viewBox="0 0 971 819" width="971px" zoomAndPan="magnify"><defs/><g><text fill="#000000" font-family="sans-serif" font-size="14" font-weight="bold" lengthAdjust="spacing" textLength="394" x="281.755" y="24.5332">Paperless Document Management System - Architecture</text><!--entity user--><g id="elem_user"><ellipse cx="619.01" cy="52.6094" fill="#F1F1F1" rx="8" ry="8" style="stroke:#181818;stroke-width:0.5;"/><path d="M619.01,60.6094 L619.01,87.6094 M606.01,68.6094 L632.01,68.6094 M619.01,87.6094 L606.01,102.6094 M619.01,87.6094 L632.01,102.6094 " fill="none" style="stroke:#181818;stroke-width:0.5;"/><text fill="#000000" font-family="sans-serif" font-size="14" lengthAdjust="spacing" textLength="29" x="604.51" y="118.6426">User</text></g><!--entity web--><g id="elem_web"><rect fill="#F1F1F1" height="55.2188" rx="2.5" ry="2.5" style="stroke:#181818;stroke-width:0.5;" width="94" x="572.01" y="200.1094"/><text fill="#000000" font-family="sans-serif" font-size="14" lengthAdjust="spacing" textLength="74" x="582.01" y="224.6426">Next.js Web</text><text fill="#000000" font-family="sans-serif" font-size="14" lengthAdjust="spacing" textLength="36" x="582.01" y="242.252">:3000</text></g><!--entity api--><g id="elem_api"><rect fill="#F1F1F1" height="55.2188" rx="2.5" ry="2.5" style="stroke:#181818;stroke-width:0.5;" width="119" x="559.51" y="333.1094"/><text fill="#000000" font-family="sans-serif" font-size="14" lengthAdjust="spacing" textLength="99" x="569.51" y="357.6426">Spring Boot API</text><text fill="#000000" font-family="sans-serif" font-size="14" lengthAdjust="spacing" textLength="36" x="569.51" y="375.252">:4000</text></g><!--entity kafka--><g id="elem_kafka"><path d="M273.01,475.6094 L365.01,475.6094 C370.01,475.6094 370.01,498.2188 370.01,498.2188 C370.01,498.2188 370.01,520.8281 365.01,520.8281 L273.01,520.8281 C268.01,520.8281 268.01,498.2188 268.01,498.2188 C268.01,498.2188 268.01,475.6094 273.01,475.6094 " fill="#F1F1F1" style="stroke:#181818;stroke-width:0.5;"/><path d="M365.01,475.6094 C360.01,475.6094 360.01,498.2188 360.01,498.2188 C360.01,520.8281 365.01,520.8281 365.01,520.8281 " fill="none" style="stroke:#181818;stroke-width:0.5;"/><text fill="#000000" font-family="sans-serif" font-size="14" lengthAdjust="spacing" textLength="82" x="273.01" y="495.1426">Kafka Broker</text><text fill="#000000" font-family="sans-serif" font-size="14" lengthAdjust="spacing" textLength="36" x="273.01" y="512.752">:9092</text></g><!--entity kafkaUI--><g id="elem_kafkaUI"><rect fill="#F1F1F1" height="55.2188" rx="2.5" ry="2.5" style="stroke:#181818;stroke-width:0.5;" width="72" x="267.01" y="333.1094"/><text fill="#000000" font-family="sans-serif" font-size="14" lengthAdjust="spacing" textLength="52" x="277.01" y="357.6426">Kafka UI</text><text fill="#000000" font-family="sans-serif" font-size="14" lengthAdjust="spacing" textLength="36" x="277.01" y="375.252">:8080</text></g><!--entity ocr--><g id="elem_ocr"><rect fill="#F1F1F1" height="55.2188" rx="2.5" ry="2.5" style="stroke:#181818;stroke-width:0.5;" width="118" x="97.01" y="608.1094"/><text fill="#000000" font-family="sans-serif" font-size="14" lengthAdjust="spacing" textLength="81" x="107.01" y="632.6426">OCR Worker</text><text fill="#000000" font-family="sans-serif" font-size="14" lengthAdjust="spacing" textLength="98" x="107.01" y="650.252">(consumes ocr)</text></g><!--entity genai--><g id="elem_genai"><rect fill="#F1F1F1" height="55.2188" rx="2.5" ry="2.5" style="stroke:#181818;stroke-width:0.5;" width="178" x="343.01" y="608.1094"/><text fill="#000000" font-family="sans-serif" font-size="14" lengthAdjust="spacing" textLength="89" x="353.01" y="632.6426">GenAI Worker</text><text fill="#000000" font-family="sans-serif" font-size="14" lengthAdjust="spacing" textLength="158" x="353.01" y="650.252">(consumes genai-queue)</text></g><!--entity gemini--><g id="elem_gemini"><path d="M346.1391,759.4644 C349.6318,752.3749 355.5704,750.8093 361.3724,756.7684 C364.5981,750.6414 369.9038,748.8021 374.9035,754.7865 C377.9749,749.1773 382.4016,747.8536 387.1458,752.8567 C393.7399,745.4188 398.6958,747.7394 402.684,755.5178 C407.1429,749.0843 412.2033,749.9584 415.5321,756.626 C420.0326,750.5542 426.1719,751.9585 428.5304,758.7846 C438.2763,763.0077 437.8425,768.4559 431.191,775.3177 C439.2612,780.1674 438.2753,787.369 429.8044,790.7306 C426.6936,797.0797 420.8423,797.607 416.2565,792.4704 C412.3846,799.398 408.1224,800.3977 402.3531,794.5325 C398.8786,801.3433 394.4308,803.0214 388.7611,796.8266 C381.7947,803.473 376.9215,801.1691 373.1768,793.3546 C368.5667,798.4714 363.8315,798.1815 361.3588,791.2569 C355.9369,798.9375 350.3147,796.9841 346.0189,790.073 C336.324,788.7662 331.3302,784.989 335.9942,774.4617 C332.7136,765.7881 337.1286,759.8237 346.1391,759.4644 " fill="#F1F1F1" style="stroke:#181818;stroke-width:0.5;"/><text fill="#000000" font-family="sans-serif" font-size="14" lengthAdjust="spacing" textLength="69" x="352.51" y="779.1426">Gemini API</text></g><!--entity minio--><g id="elem_minio"><path d="M177.3669,749.7385 C179.7739,743.7441 184.9004,742.1888 189.3579,747.5788 C191.0684,740.0432 197.4648,739.8422 202.0554,744.6054 C204.9353,738.6519 209.3504,738.3302 213.8337,742.7922 C215.9574,737.4242 221.0196,735.1331 225.2862,740.5078 C230.41,736.3833 234.4003,737.84 236.6969,743.7294 C241.5577,739.2021 246.3061,738.7023 249.0129,745.9771 C252.8049,740.8886 257.9211,742.0458 260.7573,747.0854 C264.6804,742.7348 269.6987,743.7409 271.5896,749.3056 C279.1125,751.8973 278.4438,757.81 273.5171,762.2548 C280.7659,765.52 279.5785,770.3082 274.8911,774.8731 C279.9256,779.6116 280.1022,784.0394 273.619,787.6293 C279.7223,792.1538 279.3447,795.9477 272.9423,799.7754 C269.7607,806.417 263.5274,806.4593 259.5307,800.6536 C257.2932,807.0616 253.1749,808.896 247.5397,804.3846 C245.3026,809.7925 240.218,811.0387 236.2546,806.3056 C233.54,812.5569 229.1223,812.0685 225.2526,807.4777 C221.6471,812.1003 216.9271,811.9164 214.3435,806.3804 C209.3426,811.9414 204.9515,809.6113 202.4971,803.7414 C197.3033,808.7899 192.917,806.3539 190.8757,800.4089 C186.5306,806.6049 180.2266,805.6435 177.6591,798.6303 C171.5863,796.2071 170.2844,792.7956 175.066,787.7786 C167.6859,786.4734 166.1678,780.7658 171.4097,775.6542 C165.9058,770.248 166.4673,765.844 173.9354,763.0339 C168.2204,756.9753 169.2696,752.2323 177.3669,749.7385 " fill="#F1F1F1" style="stroke:#181818;stroke-width:0.5;"/><text fill="#000000" font-family="sans-serif" font-size="14" lengthAdjust="spacing" textLength="57" x="184.01" y="770.6426">MinIO S3</text><text fill="#000000" font-family="sans-serif" font-size="14" lengthAdjust="spacing" textLength="80" x="184.01" y="788.252">:9000 / 9001</text></g><!--entity db--><g id="elem_db"><path d="M857.51,476.1094 C857.51,466.1094 906.01,466.1094 906.01,466.1094 C906.01,466.1094 954.51,466.1094 954.51,476.1094 L954.51,520.3281 C954.51,530.3281 906.01,530.3281 906.01,530.3281 C906.01,530.3281 857.51,530.3281 857.51,520.3281 L857.51,476.1094 " fill="#F1F1F1" style="stroke:#181818;stroke-width:0.5;"/><path d="M857.51,476.1094 C857.51,486.1094 906.01,486.1094 906.01,486.1094 C906.01,486.1094 954.51,486.1094 954.51,476.1094 " fill="none" style="stroke:#181818;stroke-width:0.5;"/><text fill="#000000" font-family="sans-serif" font-size="14" lengthAdjust="spacing" textLength="77" x="867.51" y="504.6426">PostgreSQL</text><text fill="#000000" font-family="sans-serif" font-size="14" lengthAdjust="spacing" textLength="36" x="867.51" y="522.252">:5455</text></g><!--entity pgadmin--><g id="elem_pgadmin"><rect fill="#F1F1F1" height="55.2188" rx="2.5" ry="2.5" style="stroke:#181818;stroke-width:0.5;" width="75" x="884.51" y="333.1094"/><text fill="#000000" font-family="sans-serif" font-size="14" lengthAdjust="spacing" textLength="55" x="894.51" y="357.6426">pgAdmin</text><text fill="#000000" font-family="sans-serif" font-size="14" lengthAdjust="spacing" textLength="36" x="894.51" y="375.252">:5050</text></g><!--entity es--><g id="elem_es"><rect fill="#F1F1F1" height="55.2188" rx="2.5" ry="2.5" style="stroke:#181818;stroke-width:0.5;" width="104" x="652.01" y="746.1094"/><text fill="#000000" font-family="sans-serif" font-size="14" lengthAdjust="spacing" textLength="84" x="662.01" y="770.6426">Elasticsearch</text><text fill="#000000" font-family="sans-serif" font-size="14" lengthAdjust="spacing" textLength="36" x="662.01" y="788.252">:9200</text></g><!--entity kibana--><g id="elem_kibana"><rect fill="#F1F1F1" height="55.2188" rx="2.5" ry="2.5" style="stroke:#181818;stroke-width:0.5;" width="64" x="672.01" y="608.1094"/><text fill="#000000" font-family="sans-serif" font-size="14" lengthAdjust="spacing" textLength="44" x="682.01" y="632.6426">Kibana</text><text fill="#000000" font-family="sans-serif" font-size="14" lengthAdjust="spacing" textLength="36" x="682.01" y="650.252">:5601</text></g><!--link user to web--><g id="link_user_web"><path d="M619.01,122.2994 C619.01,146.8694 619.01,172.1694 619.01,194.0494 " fill="none" id="user-to-web" style="stroke:#181818;stroke-width:1.0;"/><polygon fill="#181818" points="619.01,200.0494,623.01,191.0494,619.01,195.0494,615.01,191.0494,619.01,200.0494" style="stroke:#181818;stroke-width:1.0;"/><text fill="#000000" font-family="sans-serif" font-size="13" lengthAdjust="spacing" textLength="32" x="620.01" y="166.6045">HTTP</text></g><!--link web to api--><g id="link_web_api"><path d="M619.01,255.1194 C619.01,277.6994 619.01,303.9894 619.01,326.6894 " fill="none" id="web-to-api" style="stroke:#181818;stroke-width:1.0;"/><polygon fill="#181818" points="619.01,332.6894,623.01,323.6894,619.01,327.6894,615.01,323.6894,619.01,332.6894" style="stroke:#181818;stroke-width:1.0;"/><text fill="#000000" font-family="sans-serif" font-size="13" lengthAdjust="spacing" textLength="75" x="620.01" y="299.6045">REST /api/v1</text></g><!--link api to minio--><g id="link_api_minio"><path d="M619.27,388.3394 C619.75,466.0594 619.15,687.9594 597.01,711.1094 C554.23,755.8694 380.54,728.0494 320.01,741.1094 C306.55,744.0094 298.0312,746.2603 284.7712,750.5303 " fill="none" id="api-to-minio" style="stroke:#181818;stroke-width:1.0;"/><polygon fill="#181818" points="279.06,752.3694,288.8529,753.4181,283.8193,750.8368,286.4007,745.8032,279.06,752.3694" style="stroke:#181818;stroke-width:1.0;"/><text fill="#000000" font-family="sans-serif" font-size="13" lengthAdjust="spacing" textLength="100" x="618.01" y="574.6045">Upload/Download</text></g><!--link api to db--><g id="link_api_db"><path d="M678.77,373.2094 C717.15,382.1494 767.25,396.6594 808.01,418.1094 C831.99,430.7294 851.2544,445.6632 869.3644,461.8332 " fill="none" id="api-to-db" style="stroke:#181818;stroke-width:1.0;"/><polygon fill="#181818" points="873.84,465.8294,869.7907,456.8514,870.1103,462.4993,864.4625,462.8189,873.84,465.8294" style="stroke:#181818;stroke-width:1.0;"/><text fill="#000000" font-family="sans-serif" font-size="13" lengthAdjust="spacing" textLength="33" x="836.01" y="432.6045">JDBC</text></g><!--link api to kafka--><g id="link_api_kafka"><path d="M559.27,365.6294 C509.45,371.3194 438.26,385.0294 385.01,418.1094 C362.09,432.3494 346.4958,452.2331 334.8858,470.2831 " fill="none" id="api-to-kafka" style="stroke:#181818;stroke-width:1.0;"/><polygon fill="#181818" points="331.64,475.3294,339.8729,469.9239,334.3448,471.1242,333.1446,465.5961,331.64,475.3294" style="stroke:#181818;stroke-width:1.0;"/><text fill="#000000" font-family="sans-serif" font-size="13" lengthAdjust="spacing" textLength="69" x="386.01" y="432.6045">Publish 'ocr'</text></g><!--link kafka to api--><g id="link_kafka_api"><path d="M370.22,475.7594 C397.11,464.3494 430.52,449.8494 460.01,436.1094 C476.23,428.5594 479.88,425.8394 496.01,418.1094 C516.78,408.1494 534.2139,400.0355 554.5639,390.7255 " fill="none" id="kafka-to-api" style="stroke:#181818;stroke-width:1.0;"/><polygon fill="#181818" points="560.02,388.2294,550.1717,388.3362,555.4732,390.3095,553.4999,395.611,560.02,388.2294" style="stroke:#181818;stroke-width:1.0;"/><text fill="#000000" font-family="sans-serif" font-size="13" lengthAdjust="spacing" textLength="95" x="497.01" y="432.6045">Consume 'result'</text></g><!--link kafka to ocr--><g id="link_kafka_ocr"><path d="M267.9,502.3694 C193.07,508.3294 59.4,523.8694 30.01,560.1094 C6,589.7194 47.6037,608.6223 90.9537,620.5123 " fill="none" id="kafka-to-ocr" style="stroke:#181818;stroke-width:1.0;"/><polygon fill="#181818" points="96.74,622.0994,89.1186,615.8613,91.9181,620.7768,87.0025,623.5763,96.74,622.0994" style="stroke:#181818;stroke-width:1.0;"/><text fill="#000000" font-family="sans-serif" font-size="13" lengthAdjust="spacing" textLength="81" x="31.01" y="574.6045">Consume 'ocr'</text></g><!--link ocr to kafka--><g id="link_ocr_kafka"><path d="M158.72,607.7694 C161.53,592.2294 167.28,573.2294 179.01,560.1094 C202.08,534.3194 232.2602,520.6839 261.9402,511.8339 " fill="none" id="ocr-to-kafka" style="stroke:#181818;stroke-width:1.0;"/><polygon fill="#181818" points="267.69,510.1194,257.9223,508.8579,262.8985,511.5481,260.2082,516.5243,267.69,510.1194" style="stroke:#181818;stroke-width:1.0;"/><text fill="#000000" font-family="sans-serif" font-size="13" lengthAdjust="spacing" textLength="121" x="180.01" y="574.6045">Publish 'genai-queue'</text></g><!--link ocr to minio--><g id="link_ocr_minio"><path d="M169.28,663.1594 C180.42,685.4194 193.6567,711.9028 205.4567,735.5028 " fill="none" id="ocr-to-minio" style="stroke:#181818;stroke-width:1.0;"/><polygon fill="#181818" points="208.14,740.8694,207.6928,731.0307,205.9039,736.3972,200.5374,734.6084,208.14,740.8694" style="stroke:#181818;stroke-width:1.0;"/><text fill="#000000" font-family="sans-serif" font-size="13" lengthAdjust="spacing" textLength="69" x="194.01" y="707.6045">Read object</text></g><!--link kafka to genai--><g id="link_kafka_genai"><path d="M311.94,520.9194 C307.86,537.8094 305.39,561.1194 316.01,578.1094 C323.79,590.5494 330.0476,597.2115 342.6976,604.8715 " fill="none" id="kafka-to-genai" style="stroke:#181818;stroke-width:1.0;"/><polygon fill="#181818" points="347.83,607.9794,342.2033,599.896,343.553,605.3895,338.0595,606.7392,347.83,607.9794" style="stroke:#181818;stroke-width:1.0;"/><text fill="#000000" font-family="sans-serif" font-size="13" lengthAdjust="spacing" textLength="133" x="317.01" y="574.6045">Consume 'genai-queue'</text></g><!--link genai to kafka--><g id="link_genai_kafka"><path d="M450.76,607.9194 C458.77,592.9894 464.36,574.5394 455.01,560.1094 C436.31,531.2194 406.1277,517.4242 375.8777,509.3642 " fill="none" id="genai-to-kafka" style="stroke:#181818;stroke-width:1.0;"/><polygon fill="#181818" points="370.08,507.8194,377.7467,514.0017,374.9114,509.1067,379.8064,506.2714,370.08,507.8194" style="stroke:#181818;stroke-width:1.0;"/><text fill="#000000" font-family="sans-serif" font-size="13" lengthAdjust="spacing" textLength="83" x="461.01" y="574.6045">Publish 'result'</text></g><!--link genai to gemini--><g id="link_genai_gemini"><path d="M402.68,663.3494 C395.13,672.0294 388.01,682.2394 384.01,693.1094 C377.39,711.1294 377.8489,727.1018 380.5689,743.3418 " fill="none" id="genai-to-gemini" style="stroke:#181818;stroke-width:1.0;"/><polygon fill="#181818" points="381.56,749.2594,384.0184,739.7223,380.7341,744.3281,376.1283,741.0438,381.56,749.2594" style="stroke:#181818;stroke-width:1.0;"/><text fill="#000000" font-family="sans-serif" font-size="13" lengthAdjust="spacing" textLength="66" x="385.01" y="707.6045">Summarize</text></g><!--link genai to es--><g id="link_genai_es"><path d="M485.1,663.1594 C533.34,687.2694 598.7134,719.9561 646.6134,743.9061 " fill="none" id="genai-to-es" style="stroke:#181818;stroke-width:1.0;"/><polygon fill="#181818" points="651.98,746.5894,645.719,738.9867,647.5079,744.3533,642.1413,746.1422,651.98,746.5894" style="stroke:#181818;stroke-width:1.0;"/><text fill="#000000" font-family="sans-serif" font-size="13" lengthAdjust="spacing" textLength="99" x="578.01" y="707.6045">Index summaries</text></g><!--link api to es--><g id="link_api_es"><path d="M637.8,388.1894 C667.62,431.8294 725.23,522.3894 753.01,608.1094 C767.26,652.0594 784.95,668.5394 767.01,711.1094 C761.43,724.3494 755.8584,732.0785 745.4684,741.7185 " fill="none" id="api-to-es" style="stroke:#181818;stroke-width:1.0;"/><polygon fill="#181818" points="741.07,745.7994,750.3882,742.6103,744.7353,742.3986,744.947,736.7457,741.07,745.7994" style="stroke:#181818;stroke-width:1.0;"/><text fill="#000000" font-family="sans-serif" font-size="13" lengthAdjust="spacing" textLength="88" x="744.01" y="574.6045">Search / Query</text></g><!--link pgadmin to db--><g id="link_pgadmin_db"><path d="M918.85,388.3794 C916.23,410.5894 913.1922,436.2606 910.4322,459.6806 " fill="none" id="pgadmin-to-db" style="stroke:#181818;stroke-width:1.0;"/><polygon fill="#181818" points="909.73,465.6394,914.7559,457.1694,910.3152,460.6737,906.8108,456.2331,909.73,465.6394" style="stroke:#181818;stroke-width:1.0;"/><text fill="#000000" font-family="sans-serif" font-size="13" lengthAdjust="spacing" textLength="37" x="916.01" y="432.6045">Admin</text></g><!--link kafkaUI to kafka--><g id="link_kafkaUI_kafka"><path d="M299.49,388.2994 C298.22,402.5594 297.62,420.3694 300.01,436.1094 C302.05,449.4894 304.461,458.3122 308.521,469.8022 " fill="none" id="kafkaUI-to-kafka" style="stroke:#181818;stroke-width:1.0;"/><polygon fill="#181818" points="310.52,475.4594,311.293,465.6409,308.8542,470.745,303.7501,468.3062,310.52,475.4594" style="stroke:#181818;stroke-width:1.0;"/><text fill="#000000" font-family="sans-serif" font-size="13" lengthAdjust="spacing" textLength="43" x="301.01" y="432.6045">Monitor</text></g><!--link kibana to es--><g id="link_kibana_es"><path d="M704.01,663.1594 C704.01,686.9594 704.01,715.7394 704.01,739.6694 " fill="none" id="kibana-to-es" style="stroke:#181818;stroke-width:1.0;"/><polygon fill="#181818" points="704.01,745.6694,708.01,736.6694,704.01,740.6694,700.01,736.6694,704.01,745.6694" style="stroke:#181818;stroke-width:1.0;"/><text fill="#000000" font-family="sans-serif" font-size="13" lengthAdjust="spacing" textLength="53" x="705.01" y="707.6045">Visualize</text></g><!--SRC=[RLFBSjCm5DthA-vaKrY4k8ymRHRCvD610A5kdD0D6zc-k6fioUZHDdmzLxAJs5DMlZxdwBwEP8Kj4M9UeoxH65Yep5KeBQouv0M6CDaRYnKCOQgpHs4niquZOsOdPCqrho1JLQqaIHExfsoQ55mM9MbuPfM6mTQW7W0tu2XWxAY7mGzyjH-U33nW-ajEBgCe2heNJBkgfDP25Z1Joi8qNfBowg3ajM3iZqE7CFZ6V-yupBJQeIRDJNHp4JGxZtVpDSAjJtGTNKSdqNRPw-vkleO7fKEwTvcIXdPZG6NwVJX2GLVz6ULq-HzzWPABOUYnEHS0bfNAvVvK9QJmOxMS_sK7TYNayWwIop1E5C48w7CUb5wdMCujJxcXwMDbRA4nkVzEul7LU1nKUM-HTJ7DwPmNHEDcxhhW7khDVLjoOqLca9FZllH5ksqqlJMAb6w9J_QnxMaN4CQypp0SVl96mWI-R3Onyw67o362rhV91aOKZvxFcOSy5KOYSbkNYkUZXNgHFZZokK_sTJ6R7v7W6e6nIqjX7k6CF3bZ3Ufv-YLstbZHiXxhLbiZpq6bJtHjZzoRl1qJk_a3tAtGqpLiemikJo1nLSMr-8iTakx819OonrSm3KrxFj5lUj5eN6cxRJGxFJPn41os50eamKswGVSEzPwrlf_s6cu6Qvz1h_1AIK7lc3NkdZB-5CRnqi_o3m00]--></g></svg>