<?xml version="1.0" encoding="us-ascii" standalone="no"?><svg xmlns="http://www.w3.org/2000/svg" xmlns:xlink="http://www.w3.org/1999/xlink" contentStyleType="text/css" height="801px" preserveAspectRatio="none" style="width:457px;height:801px;background:#FFFFFF;" version="1.1" viewBox="0 0 457 801" width="457px" zoomAndPan="magnify"><defs/><g><text fill="#000000" font-family="sans-serif" font-size="14" font-weight="bold" lengthAdjust="spacing" textLength="394" x="24.77" y="24.5332">Paperless Document Management System - Architecture</text><!--entity user--><g id="elem_user"><ellipse cx="226.04" cy="52.6094" fill="#F1F1F1" rx="8" ry="8" style="stroke:#181818;stroke-width:0.5;"/><path d="M226.04,60.6094 L226.04,87.6094 M213.04,68.6094 L239.04,68.6094 M226.04,87.6094 L213.04,102.6094 M226.04,87.6094 L239.04,102.6094 " fill="none" style="stroke:#181818;stroke-width:0.5;"/><text fill="#000000" font-family="sans-serif" font-size="14" lengthAdjust="spacing" textLength="29" x="211.54" y="118.6426">User</text></g><!--entity web--><g id="elem_web"><rect fill="#F1F1F1" height="55.2188" rx="2.5" ry="2.5" style="stroke:#181818;stroke-width:0.5;" width="94" x="179.04" y="200.1094"/><text fill="#000000" font-family="sans-serif" font-size="14" lengthAdjust="spacing" textLength="74" x="189.04" y="224.6426">Next.js Web</text><text fill="#000000" font-family="sans-serif" font-size="14" lengthAdjust="spacing" textLength="36" x="189.04" y="242.252">:3000</text></g><!--entity app--><g id="elem_app"><rect fill="#F1F1F1" height="55.2188" rx="2.5" ry="2.5" style="stroke:#181818;stroke-width:0.5;" width="119" x="166.54" y="333.1094"/><text fill="#000000" font-family="sans-serif" font-size="14" lengthAdjust="spacing" textLength="99" x="176.54" y="357.6426">Spring Boot API</text><text fill="#000000" font-family="sans-serif" font-size="14" lengthAdjust="spacing" textLength="36" x="176.54" y="375.252">:4000</text></g><!--entity kafka--><g id="elem_kafka"><path d="M69.04,475.6094 L115.04,475.6094 C120.04,475.6094 120.04,498.2188 120.04,498.2188 C120.04,498.2188 120.04,520.8281 115.04,520.8281 L69.04,520.8281 C64.04,520.8281 64.04,498.2188 64.04,498.2188 C64.04,498.2188 64.04,475.6094 69.04,475.6094 " fill="#F1F1F1" style="stroke:#181818;stroke-width:0.5;"/><path d="M115.04,475.6094 C110.04,475.6094 110.04,498.2188 110.04,498.2188 C110.04,520.8281 115.04,520.8281 115.04,520.8281 " fill="none" style="stroke:#181818;stroke-width:0.5;"/><text fill="#000000" font-family="sans-serif" font-size="14" lengthAdjust="spacing" textLength="36" x="69.04" y="495.1426">Kafka</text><text fill="#000000" font-family="sans-serif" font-size="14" lengthAdjust="spacing" textLength="36" x="69.04" y="512.752">:9092</text></g><!--entity worker--><g id="elem_worker"><rect fill="#F1F1F1" height="55.2188" rx="2.5" ry="2.5" style="stroke:#181818;stroke-width:0.5;" width="101" x="97.54" y="608.1094"/><text fill="#000000" font-family="sans-serif" font-size="14" lengthAdjust="spacing" textLength="81" x="107.54" y="632.6426">OCR Worker</text><text fill="#000000" font-family="sans-serif" font-size="14" lengthAdjust="spacing" textLength="64" x="107.54" y="650.252">(Scalable)</text></g><!--entity db--><g id="elem_db"><path d="M343.54,476.1094 C343.54,466.1094 392.04,466.1094 392.04,466.1094 C392.04,466.1094 440.54,466.1094 440.54,476.1094 L440.54,520.3281 C440.54,530.3281 392.04,530.3281 392.04,530.3281 C392.04,530.3281 343.54,530.3281 343.54,520.3281 L343.54,476.1094 " fill="#F1F1F1" style="stroke:#181818;stroke-width:0.5;"/><path d="M343.54,476.1094 C343.54,486.1094 392.04,486.1094 392.04,486.1094 C392.04,486.1094 440.54,486.1094 440.54,476.1094 " fill="none" style="stroke:#181818;stroke-width:0.5;"/><text fill="#000000" font-family="sans-serif" font-size="14" lengthAdjust="spacing" textLength="77" x="353.54" y="504.6426">PostgreSQL</text><text fill="#000000" font-family="sans-serif" font-size="14" lengthAdjust="spacing" textLength="36" x="353.54" y="522.252">:5455</text></g><!--entity pgadmin--><g id="elem_pgadmin"><rect fill="#F1F1F1" height="55.2188" rx="2.5" ry="2.5" style="stroke:#181818;stroke-width:0.5;" width="75" x="370.54" y="333.1094"/><text fill="#000000" font-family="sans-serif" font-size="14" lengthAdjust="spacing" textLength="55" x="380.54" y="357.6426">pgAdmin</text><text fill="#000000" font-family="sans-serif" font-size="14" lengthAdjust="spacing" textLength="36" x="380.54" y="375.252">:5050</text></g><!--entity storage--><g id="elem_storage"><path d="M166.9531,750.0016 C169.3471,745.1008 173.6093,743.66 177.3122,748.6277 C181.2212,743.6888 184.6821,742.6842 188.6599,748.5555 C192.1525,741.9155 196.0289,740.8502 201.2092,746.8844 C204.3709,740.2808 208.0894,741.0495 212.8073,745.2072 C215.9443,740.8173 220.7115,740.603 222.7182,746.3159 C227.1436,741.2467 232.858,740.2364 235.9757,747.6994 C239.9949,743.2713 244.7659,743.5235 247.3267,749.3186 C250.3615,745.0555 254.9982,744.943 257.1809,750.2005 C264.8777,753.8321 265.7812,759.9055 259.2855,765.4906 C264.6284,771.0919 264.8055,777.6556 256.5535,780.8367 C254.2354,787.2151 250.4114,787.4687 245.6512,783.3803 C242.8773,789.0466 238.7505,789.571 234.146,785.5556 C231.6865,790.7173 227.5154,790.51 224.375,786.2628 C221.4329,792.4136 217.8313,793.2585 212.577,788.845 C208.0716,794.2117 204.2194,793.7854 200.833,787.6977 C196.9198,792.9963 191.9738,791.1298 189.9697,785.7547 C185.82,790.6041 180.1102,790.3794 177.4771,784.0586 C172.7399,788.8916 169.6409,787.5983 167.1777,781.846 C158.7205,779.7995 156.304,772.9692 163.3849,766.9629 C155.7,759.4615 157.016,753.7958 166.9531,750.0016 " fill="#F1F1F1" style="stroke:#181818;stroke-width:0.5;"/><text fill="#000000" font-family="sans-serif" font-size="14" lengthAdjust="spacing" textLength="77" x="172.54" y="770.6426">File Storage</text></g><!--link user to web--><g id="link_user_web"><path d="M226.04,122.2994 C226.04,146.8694 226.04,172.1694 226.04,194.0494 " fill="none" id="user-to-web" style="stroke:#181818;stroke-width:1.0;"/><polygon fill="#181818" points="226.04,200.0494,230.04,191.0494,226.04,195.0494,222.04,191.0494,226.04,200.0494" style="stroke:#181818;stroke-width:1.0;"/><text fill="#000000" font-family="sans-serif" font-size="13" lengthAdjust="spacing" textLength="32" x="227.04" y="166.6045">HTTP</text></g><!--link web to app--><g id="link_web_app"><path d="M226.04,255.1194 C226.04,277.6994 226.04,303.9894 226.04,326.6894 " fill="none" id="web-to-app" style="stroke:#181818;stroke-width:1.0;"/><polygon fill="#181818" points="226.04,332.6894,230.04,323.6894,226.04,327.6894,222.04,323.6894,226.04,332.6894" style="stroke:#181818;stroke-width:1.0;"/><text fill="#000000" font-family="sans-serif" font-size="13" lengthAdjust="spacing" textLength="59" x="227.04" y="299.6045">REST API</text></g><!--link app to db--><g id="link_app_db"><path d="M258.84,388.3794 C286.14,410.6694 320.4116,438.6456 349.1316,462.0856 " fill="none" id="app-to-db" style="stroke:#181818;stroke-width:1.0;"/><polygon fill="#181818" points="353.78,465.8794,349.3367,457.0898,349.9064,462.7179,344.2783,463.2876,353.78,465.8794" style="stroke:#181818;stroke-width:1.0;"/><text fill="#000000" font-family="sans-serif" font-size="13" lengthAdjust="spacing" textLength="33" x="315.04" y="432.6045">JDBC</text></g><!--link app to kafka--><g id="link_app_kafka"><path d="M199.57,388.3794 C174.4,413.8294 141.2182,447.3725 117.8182,471.0425 " fill="none" id="app-to-kafka" style="stroke:#181818;stroke-width:1.0;"/><polygon fill="#181818" points="113.6,475.3094,122.772,471.7212,117.1152,471.7536,117.0827,466.0969,113.6,475.3094" style="stroke:#181818;stroke-width:1.0;"/><text fill="#000000" font-family="sans-serif" font-size="13" lengthAdjust="spacing" textLength="73" x="169.04" y="432.6045">Publish (ocr)</text></g><!--link kafka to app--><g id="link_kafka_app"><path d="M65.56,475.5594 C48.76,459.2294 32.51,436.5294 46.04,418.1094 C73.37,380.8794 119.2357,368.1832 160.2857,363.6832 " fill="none" id="kafka-to-app" style="stroke:#181818;stroke-width:1.0;"/><polygon fill="#181818" points="166.25,363.0294,156.8677,360.0339,161.2798,363.5742,157.7395,367.9863,166.25,363.0294" style="stroke:#181818;stroke-width:1.0;"/><text fill="#000000" font-family="sans-serif" font-size="13" lengthAdjust="spacing" textLength="99" x="47.04" y="432.6045">Consume (result)</text></g><!--link app to storage--><g id="link_app_storage"><path d="M240.5,388.1394 C244.78,397.3494 248.89,407.9294 251.04,418.1094 C252.69,425.9394 251.43,428.1194 251.04,436.1094 C245.03,558.7694 244.72,590.0494 224.04,711.1094 C222.35,721.0094 221.3207,725.9875 218.9507,735.2275 " fill="none" id="app-to-storage" style="stroke:#181818;stroke-width:1.0;"/><polygon fill="#181818" points="217.46,741.0394,223.5706,733.3154,218.7023,736.1962,215.8215,731.3278,217.46,741.0394" style="stroke:#181818;stroke-width:1.0;"/><text fill="#000000" font-family="sans-serif" font-size="13" lengthAdjust="spacing" textLength="81" x="246.04" y="574.6045">Store/Retrieve</text></g><!--link kafka to worker--><g id="link_kafka_worker"><path d="M101.04,520.8794 C110.81,544.5194 124.1287,576.7541 134.6487,602.2141 " fill="none" id="kafka-to-worker" style="stroke:#181818;stroke-width:1.0;"/><polygon fill="#181818" points="136.94,607.7594,137.1999,597.9139,135.0306,603.1383,129.8062,600.969,136.94,607.7594" style="stroke:#181818;stroke-width:1.0;"/><text fill="#000000" font-family="sans-serif" font-size="13" lengthAdjust="spacing" textLength="85" x="125.04" y="574.6045">Consume (ocr)</text></g><!--link worker to kafka--><g id="link_worker_kafka"><path d="M97.23,625.5894 C69.97,617.8794 38.65,603.7694 22.04,578.1094 C6,553.3494 32.6349,531.4985 58.4649,516.4585 " fill="none" id="worker-to-kafka" style="stroke:#181818;stroke-width:1.0;"/><polygon fill="#181818" points="63.65,513.4394,53.8597,514.5113,59.3291,515.9553,57.8851,521.4248,63.65,513.4394" style="stroke:#181818;stroke-width:1.0;"/><text fill="#000000" font-family="sans-serif" font-size="13" lengthAdjust="spacing" textLength="87" x="23.04" y="574.6045">Publish (result)</text></g><!--link worker to storage--><g id="link_worker_storage"><path d="M161.25,663.3394 C172.58,686.2694 186.0833,713.5896 196.8833,735.4596 " fill="none" id="worker-to-storage" style="stroke:#181818;stroke-width:1.0;"/><polygon fill="#181818" points="199.54,740.8394,199.1415,730.9986,197.3261,736.3562,191.9685,734.5408,199.54,740.8394" style="stroke:#181818;stroke-width:1.0;"/><text fill="#000000" font-family="sans-serif" font-size="13" lengthAdjust="spacing" textLength="30" x="185.04" y="707.6045">Read</text></g><!--link pgadmin to db--><g id="link_pgadmin_db"><path d="M404.88,388.3794 C402.26,410.5894 399.2222,436.2606 396.4622,459.6806 " fill="none" id="pgadmin-to-db" style="stroke:#181818;stroke-width:1.0;"/><polygon fill="#181818" points="395.76,465.6394,400.7859,457.1694,396.3452,460.6737,392.8408,456.2331,395.76,465.6394" style="stroke:#181818;stroke-width:1.0;"/><text fill="#000000" font-family="sans-serif" font-size="13" lengthAdjust="spacing" textLength="37" x="402.04" y="432.6045">Admin</text></g><!--SRC=[RLBBSjGm4BphAwPyOVUmu8Bi8JbGjGzI10YOzQPooMKi3uwmB1b91lBtZ6HdrvNYDcftJqztEQYW2GhioMdo7lPM3XsP0BTeiA4qbay-K0Shs3Zvg0B9C3WImhVAzEYm0scxtXgcbk69jpbce6aqSr06wo2xy-GoG0y33qAyWcjdJI1JYvCKig_qDxp-wU6UgWTpzIxFyoJvGrLKR56sBmHbxvHfO6jjW4rnmwABPn7sVHJTSYHE0LjdMpR-DT10a7t67oqo-pA_V9lORGGY_zwwo9jvVDiT9lJ1B4g96YjDo_6maSooFGQiq9Eefm6omlhGE2g_Vs6ZzSLwdIHrYhAfEsNWQAsUE_LDmYCzNuyf-WOZ53KxROSQIcwJymYPNjcruhOdB0dyz9q5Dzolu_gLDLx4sc6rUX_BX2luU3mM8euHugeOEdmeZx544PyHhYFnqtwxEo6f9GQBeTBAFyB2IhSK8tfUj6C__eDWuSWFEYnFykasfiIBwSs1WbFqcsORnaRdIvB51F_tXcUN6UTiT22inLJYELIgMVm3]--></g></svg>